<mxfile host="drawio-plugin" modified="2022-03-17T12:51:41.048Z" agent="5.0 (Windows NT 6.2; Win64; x64) AppleWebKit/537.36 (KHTML, like Gecko) Chrome/89.0.4389.114 Safari/537.36" etag="S3yB21CXwYM9syTDWcG1" version="15.5.4" type="embed"><diagram name="图例" id="12e1b939-464a-85fe-373e-61e167be1490"><mxGraphModel dx="615" dy="414" grid="1" gridSize="10" guides="1" tooltips="1" connect="1" arrows="1" fold="1" page="1" pageScale="1.5" pageWidth="100" pageHeight="100" math="0" shadow="0"><root><mxCell id="0"/><mxCell id="1" parent="0"/><mxCell id="60da8b9f42644d3a-2" value="" style="whiteSpace=wrap;html=1;shadow=0;strokeWidth=4;fontSize=20;align=center;fillColor=#B2C9AB;strokeColor=#788AA3;fontColor=#46495D;" parent="1" vertex="1"><mxGeometry x="550" y="730" width="280" height="80" as="geometry"/></mxCell><mxCell id="60da8b9f42644d3a-9" value="" style="html=1;shadow=0;dashed=0;align=center;verticalAlign=middle;shape=mxgraph.arrows2.stylisedArrow;dy=0.6;dx=40;notch=15;feather=0.4;strokeWidth=1;fontSize=27;strokeColor=none;fillColor=#B2C9AB;rotation=50;fontColor=#46495D;" parent="1" vertex="1"><mxGeometry x="428.44" y="644" width="110.74" height="60" as="geometry"/></mxCell><mxCell id="60da8b9f42644d3a-19" value="&lt;font style=&quot;font-size: 15px&quot; color=&quot;#000000&quot;&gt;线程池消费队列&lt;br&gt;保证同时仅有1个线程消费同一个队列&lt;/font&gt;" style="text;html=1;strokeColor=none;fillColor=none;align=center;verticalAlign=middle;whiteSpace=wrap;shadow=0;fontSize=14;fontColor=#46495D;" parent="1" vertex="1"><mxGeometry x="550" y="750" width="280" height="41.5" as="geometry"/></mxCell><mxCell id="60da8b9f42644d3a-22" value="队列1" style="ellipse;whiteSpace=wrap;html=1;shadow=0;strokeWidth=6;fontSize=14;align=center;fillColor=#B2C9AB;strokeColor=#788AA3;fontColor=#46495D;" parent="1" vertex="1"><mxGeometry x="370" y="510" width="115" height="115" as="geometry"/></mxCell><mxCell id="60da8b9f42644d3a-23" value="" style="html=1;shadow=0;dashed=0;align=center;verticalAlign=middle;shape=mxgraph.arrows2.stylisedArrow;dy=0.6;dx=40;notch=15;feather=0.4;strokeWidth=1;fontSize=27;strokeColor=none;fillColor=#B2C9AB;rotation=90;fontColor=#46495D;" parent="1" vertex="1"><mxGeometry x="647.5" y="642.5" width="80" height="60" as="geometry"/></mxCell><mxCell id="60da8b9f42644d3a-30" value="" style="html=1;shadow=0;dashed=0;align=center;verticalAlign=middle;shape=mxgraph.arrows2.stylisedArrow;dy=0.6;dx=40;notch=15;feather=0.4;strokeWidth=1;fontSize=27;strokeColor=none;fillColor=#B2C9AB;rotation=-240;fontColor=#46495D;" parent="1" vertex="1"><mxGeometry x="811.83" y="641.24" width="105.46" height="60" as="geometry"/></mxCell><mxCell id="60da8b9f42644d3a-36" value="队列2" style="ellipse;whiteSpace=wrap;html=1;shadow=0;strokeWidth=6;fontSize=14;align=center;fillColor=#B2C9AB;strokeColor=#788AA3;fontColor=#46495D;" parent="1" vertex="1"><mxGeometry x="630" y="510" width="115" height="115" as="geometry"/></mxCell><mxCell id="60da8b9f42644d3a-38" value="队列3" style="ellipse;whiteSpace=wrap;html=1;shadow=0;strokeWidth=6;fontSize=14;align=center;fillColor=#B2C9AB;strokeColor=#788AA3;fontColor=#46495D;" parent="1" vertex="1"><mxGeometry x="870" y="510" width="115" height="115" as="geometry"/></mxCell><mxCell id="EloW1nagu2gTrrq8kJEQ-3" value="" style="html=1;shadow=0;dashed=0;align=center;verticalAlign=middle;shape=mxgraph.arrows2.stylisedArrow;dy=0.6;dx=40;notch=15;feather=0.4;strokeWidth=1;fontSize=27;strokeColor=none;fillColor=#B2C9AB;rotation=90;fontColor=#46495D;" parent="1" vertex="1"><mxGeometry x="641.5" y="418.5" width="98" height="60" as="geometry"/></mxCell><mxCell id="EloW1nagu2gTrrq8kJEQ-4" value="" style="html=1;shadow=0;dashed=0;align=center;verticalAlign=middle;shape=mxgraph.arrows2.stylisedArrow;dy=0.6;dx=40;notch=15;feather=0.4;strokeWidth=1;fontSize=27;strokeColor=none;fillColor=#B2C9AB;rotation=90;fontColor=#46495D;" parent="1" vertex="1"><mxGeometry x="881.5" y="418.5" width="98" height="60" as="geometry"/></mxCell><mxCell id="EloW1nagu2gTrrq8kJEQ-5" value="" style="html=1;shadow=0;dashed=0;align=center;verticalAlign=middle;shape=mxgraph.arrows2.stylisedArrow;dy=0.6;dx=40;notch=15;feather=0.4;strokeWidth=1;fontSize=27;strokeColor=none;fillColor=#B2C9AB;rotation=90;fontColor=#46495D;" parent="1" vertex="1"><mxGeometry x="372.5" y="417.5" width="100" height="60" as="geometry"/></mxCell><mxCell id="EloW1nagu2gTrrq8kJEQ-6" value="加入任务" style="whiteSpace=wrap;html=1;fillColor=#B2C9AB;strokeColor=#788AA3;fontColor=#46495D;strokeWidth=5;" parent="1" vertex="1"><mxGeometry x="362.5" y="335" width="120" height="60" as="geometry"/></mxCell><mxCell id="EloW1nagu2gTrrq8kJEQ-7" value="加入任务" style="whiteSpace=wrap;html=1;fillColor=#B2C9AB;strokeColor=#788AA3;fontColor=#46495D;strokeWidth=5;" parent="1" vertex="1"><mxGeometry x="630" y="335" width="120" height="60" as="geometry"/></mxCell><mxCell id="EloW1nagu2gTrrq8kJEQ-8" value="加入任务" style="whiteSpace=wrap;html=1;fillColor=#B2C9AB;strokeColor=#788AA3;fontColor=#46495D;strokeWidth=5;" parent="1" vertex="1"><mxGeometry x="870" y="335" width="120" height="60" as="geometry"/></mxCell></root></mxGraphModel></diagram></mxfile>